# xmcd
#
# Track frame offsets:
#	150
#	18680
#	36117
#	49397
#	63152
#	79815
#	95992
#	111007
#	124782
#	141270
#
# Disc length: 2111 seconds
#
# Revision: 1
# Processed by: cddbd v1.4PL0 Copyright (c) Steve Scherf et al.
# Submitted via: audiograbber 1.80
#
DISCID=8e083d0a
DTITLE=Crystal Gayle - Miss The Mississippi
DYEAR=1900
DGENRE=
TTITLE0=Half The Way
TTITLE1=The Other Side Of Me
TTITLE2=Room For One More
TTITLE3=Don't Go My Love
TTITLE4=Dancing The Night Away
TTITLE5=It's Like We Never Said Goodbye
TTITLE6=The Blue Side
TTITLE7=A Little Bit Of The Rain
TTITLE8=Danger Zone
TTITLE9=Miss The Mississippi And You
EXTD=
EXTT0=
EXTT1=
EXTT2=
EXTT3=
EXTT4=
EXTT5=
EXTT6=
EXTT7=
EXTT8=
EXTT9=
PLAYORDER=
